/* XPM */
static char * ryzom_32x32_xpm[] = {
"32 32 586 2",
"  	c None",
". 	c #CACCCA",
"+ 	c #737766",
"@ 	c #747674",
"# 	c #717175",
"$ 	c #6E6E71",
"% 	c #8A9293",
"& 	c #888477",
"* 	c #63605B",
"= 	c #83856E",
"- 	c #888C7E",
"; 	c #666D60",
"> 	c #4A483C",
", 	c #433729",
"' 	c #8A816C",
") 	c #48453A",
"! 	c #3D3A32",
"~ 	c #6B6A61",
"{ 	c #8A8B8A",
"] 	c #989592",
"^ 	c #948F87",
"/ 	c #7E7861",
"( 	c #59513F",
"_ 	c #65604F",
": 	c #918F86",
"< 	c #5F5E45",
"[ 	c #4B5735",
"} 	c #3F462F",
"| 	c #443F31",
"1 	c #49483C",
"2 	c #7F7B6F",
"3 	c #6E6049",
"4 	c #696C6D",
"5 	c #483C2F",
"6 	c #403623",
"7 	c #5B4C3B",
"8 	c #514237",
"9 	c #66553A",
"0 	c #645B3E",
"a 	c #878B79",
"b 	c #93948B",
"c 	c #605C3B",
"d 	c #4D5032",
"e 	c #373117",
"f 	c #48512C",
"g 	c #52633A",
"h 	c #2B2818",
"i 	c #664E32",
"j 	c #37341B",
"k 	c #636156",
"l 	c #737769",
"m 	c #454935",
"n 	c #3F4430",
"o 	c #666637",
"p 	c #5E712F",
"q 	c #535435",
"r 	c #7D7E6A",
"s 	c #717267",
"t 	c #6E6B6A",
"u 	c #545B46",
"v 	c #6D715E",
"w 	c #767960",
"x 	c #575736",
"y 	c #42512E",
"z 	c #303828",
"A 	c #3E3C22",
"B 	c #4D4B1E",
"C 	c #323916",
"D 	c #565137",
"E 	c #4A3D26",
"F 	c #3E3E24",
"G 	c #746E37",
"H 	c #5F5B2F",
"I 	c #232A10",
"J 	c #1F2513",
"K 	c #5B5B3C",
"L 	c #807B63",
"M 	c #625C4B",
"N 	c #6B675B",
"O 	c #90968D",
"P 	c #7B7E7B",
"Q 	c #7C8380",
"R 	c #4B503E",
"S 	c #1D2212",
"T 	c #4D4F31",
"U 	c #494524",
"V 	c #7D9442",
"W 	c #4F6429",
"X 	c #57512D",
"Y 	c #4F3C1F",
"Z 	c #423F1D",
"` 	c #5F6A35",
" .	c #3D481F",
"..	c #404024",
"+.	c #5F512B",
"@.	c #3F381E",
"#.	c #6E6C3F",
"$.	c #717448",
"%.	c #646C48",
"&.	c #B4ADA3",
"*.	c #E5E6E4",
"=.	c #BEBEBE",
"-.	c #444737",
";.	c #2D311B",
">.	c #222911",
",.	c #1D220E",
"'.	c #231E09",
").	c #3C3922",
"!.	c #4C5324",
"~.	c #4E4D27",
"{.	c #3F3420",
"].	c #3C401F",
"^.	c #4E552A",
"/.	c #5C703B",
"(.	c #778649",
"_.	c #43442C",
":.	c #736039",
"<.	c #897648",
"[.	c #847644",
"}.	c #635F2D",
"|.	c #525B31",
"1.	c #647444",
"2.	c #504E43",
"3.	c #7F7774",
"4.	c #8B8788",
"5.	c #969591",
"6.	c #4B542F",
"7.	c #5C6041",
"8.	c #5D513D",
"9.	c #474638",
"0.	c #4B442E",
"a.	c #859F4A",
"b.	c #373F1C",
"c.	c #24260C",
"d.	c #161407",
"e.	c #2C2D14",
"f.	c #3C4420",
"g.	c #38401D",
"h.	c #657B43",
"i.	c #70804E",
"j.	c #595C35",
"k.	c #706B3A",
"l.	c #66562B",
"m.	c #3C4120",
"n.	c #383B20",
"o.	c #444B2E",
"p.	c #75766C",
"q.	c #DEDBD8",
"r.	c #A49E98",
"s.	c #7A726F",
"t.	c #ADAFAA",
"u.	c #9CA098",
"v.	c #767164",
"w.	c #402815",
"x.	c #46362F",
"y.	c #47341D",
"z.	c #484A2B",
"A.	c #576B2A",
"B.	c #252210",
"C.	c #3F3B17",
"D.	c #4A2B12",
"E.	c #442812",
"F.	c #58582B",
"G.	c #555F32",
"H.	c #5C6433",
"I.	c #48532E",
"J.	c #636D42",
"K.	c #574E30",
"L.	c #524C2B",
"M.	c #69623A",
"N.	c #888661",
"O.	c #CECDBF",
"P.	c #E3DFDC",
"Q.	c #C9C3C3",
"R.	c #898481",
"S.	c #5D574D",
"T.	c #797271",
"U.	c #8D8987",
"V.	c #484638",
"W.	c #534830",
"X.	c #4A4C48",
"Y.	c #5E4327",
"Z.	c #252108",
"`.	c #424030",
" +	c #675F3D",
".+	c #32100A",
"++	c #2F180F",
"@+	c #887F5A",
"#+	c #817950",
"$+	c #615F39",
"%+	c #2C2D18",
"&+	c #2A2113",
"*+	c #695534",
"=+	c #947E52",
"-+	c #B8A37E",
";+	c #C3B29E",
">+	c #ACA09D",
",+	c #A09795",
"'+	c #BCBABA",
")+	c #857F7C",
"!+	c #544D3D",
"~+	c #30362B",
"{+	c #59564A",
"]+	c #A2A8A6",
"^+	c #62645A",
"/+	c #535453",
"(+	c #474534",
"_+	c #3D3C1F",
":+	c #575033",
"<+	c #776D51",
"[+	c #ACB2AA",
"}+	c #8A9080",
"|+	c #5A432F",
"1+	c #8B7B65",
"2+	c #746D50",
"3+	c #5F502C",
"4+	c #484224",
"5+	c #414122",
"6+	c #75673B",
"7+	c #9E8149",
"8+	c #BDB7A9",
"9+	c #E5E4E1",
"0+	c #EAE7E2",
"a+	c #9C9491",
"b+	c #ADABA6",
"c+	c #A0A3A0",
"d+	c #A8AFAE",
"e+	c #5C5F51",
"f+	c #5E5D32",
"g+	c #525431",
"h+	c #43382B",
"i+	c #453E34",
"j+	c #41412F",
"k+	c #5D6454",
"l+	c #464941",
"m+	c #60624D",
"n+	c #494644",
"o+	c #39382E",
"p+	c #444630",
"q+	c #584F2D",
"r+	c #444823",
"s+	c #30381B",
"t+	c #49562C",
"u+	c #7E8D54",
"v+	c #939472",
"w+	c #7F7F60",
"x+	c #7C8259",
"y+	c #373727",
"z+	c #3F3834",
"A+	c #85817E",
"B+	c #6D6D66",
"C+	c #666765",
"D+	c #352E27",
"E+	c #49493C",
"F+	c #969985",
"G+	c #A39D98",
"H+	c #928E81",
"I+	c #8C9892",
"J+	c #7E8B8A",
"K+	c #444130",
"L+	c #343021",
"M+	c #2D2D19",
"N+	c #28301C",
"O+	c #5E6257",
"P+	c #596044",
"Q+	c #3F4523",
"R+	c #384123",
"S+	c #65724F",
"T+	c #889176",
"U+	c #E6E6DF",
"V+	c #C2C0BD",
"W+	c #827B6D",
"X+	c #656551",
"Y+	c #3C3B28",
"Z+	c #524F43",
"`+	c #6A644D",
" @	c #655A42",
".@	c #7C735E",
"+@	c #9F9F8D",
"@@	c #B2B5B0",
"#@	c #C9D0CD",
"$@	c #8F9490",
"%@	c #3F4037",
"&@	c #4F504A",
"*@	c #292420",
"=@	c #2F2F19",
"-@	c #2C2710",
";@	c #252514",
">@	c #3F412A",
",@	c #5B6D68",
"'@	c #4D4C3D",
")@	c #282F1A",
"!@	c #526038",
"~@	c #49512D",
"{@	c #444B2D",
"]@	c #7F7B76",
"^@	c #5B5453",
"/@	c #535137",
"(@	c #525535",
"_@	c #565136",
":@	c #48432A",
"<@	c #483F23",
"[@	c #635636",
"}@	c #777664",
"|@	c #D5DBDA",
"1@	c #BECFD0",
"2@	c #A8BCC1",
"3@	c #525553",
"4@	c #4E4432",
"5@	c #4B402D",
"6@	c #403F26",
"7@	c #3B4A23",
"8@	c #323517",
"9@	c #454936",
"0@	c #30330E",
"a@	c #424513",
"b@	c #444F29",
"c@	c #434629",
"d@	c #746D5B",
"e@	c #585532",
"f@	c #4F552C",
"g@	c #677E43",
"h@	c #5A6E3D",
"i@	c #30361E",
"j@	c #424521",
"k@	c #5F5831",
"l@	c #3C3D1D",
"m@	c #414024",
"n@	c #3D391A",
"o@	c #413719",
"p@	c #5E593E",
"q@	c #929D9E",
"r@	c #77868D",
"s@	c #454C50",
"t@	c #2F2F2B",
"u@	c #4A3D1A",
"v@	c #3C451C",
"w@	c #313B19",
"x@	c #30401D",
"y@	c #23270F",
"z@	c #363617",
"A@	c #261605",
"B@	c #43360D",
"C@	c #5C5D29",
"D@	c #8F8D6B",
"E@	c #7F7563",
"F@	c #65512D",
"G@	c #433E23",
"H@	c #546137",
"I@	c #485332",
"J@	c #454D45",
"K@	c #60644A",
"L@	c #666C36",
"M@	c #57462C",
"N@	c #634E2A",
"O@	c #5D4A25",
"P@	c #4A3819",
"Q@	c #312513",
"R@	c #2B1F15",
"S@	c #1F2119",
"T@	c #16170F",
"U@	c #37391C",
"V@	c #373216",
"W@	c #313718",
"X@	c #1F2B11",
"Y@	c #111208",
"Z@	c #566631",
"`@	c #493915",
" #	c #4A4314",
".#	c #47501C",
"+#	c #4A5A23",
"@#	c #7B806A",
"##	c #757260",
"$#	c #3B3E23",
"%#	c #3C4124",
"&#	c #252314",
"*#	c #3A413E",
"=#	c #405B52",
"-#	c #3E4331",
";#	c #4C462A",
">#	c #5E4C29",
",#	c #654E26",
"'#	c #634C2A",
")#	c #583E1E",
"!#	c #2C1D0E",
"~#	c #3E2C17",
"{#	c #42230F",
"]#	c #443216",
"^#	c #423817",
"/#	c #1C200E",
"(#	c #161605",
"_#	c #394328",
":#	c #232212",
"<#	c #423E17",
"[#	c #26370C",
"}#	c #30371A",
"|#	c #5A6B38",
"1#	c #6E7364",
"2#	c #5C6251",
"3#	c #3D3E2D",
"4#	c #4A473C",
"5#	c #71664C",
"6#	c #775E33",
"7#	c #463921",
"8#	c #574326",
"9#	c #514528",
"0#	c #524C2D",
"a#	c #606139",
"b#	c #4C502A",
"c#	c #4B4923",
"d#	c #3F351E",
"e#	c #4F3F1E",
"f#	c #53532B",
"g#	c #202A13",
"h#	c #2A2C16",
"i#	c #2B2813",
"j#	c #343525",
"k#	c #32311A",
"l#	c #3B3B1C",
"m#	c #3F3214",
"n#	c #3F3B19",
"o#	c #333D1B",
"p#	c #2B3215",
"q#	c #272B27",
"r#	c #636E75",
"s#	c #766856",
"t#	c #6D6B3A",
"u#	c #5D6D38",
"v#	c #565E35",
"w#	c #56663A",
"x#	c #504F2F",
"y#	c #495331",
"z#	c #404528",
"A#	c #50542E",
"B#	c #607239",
"C#	c #4B5D2F",
"D#	c #364A22",
"E#	c #26301C",
"F#	c #171C12",
"G#	c #222417",
"H#	c #353D24",
"I#	c #666C6B",
"J#	c #3A3216",
"K#	c #4B4B2D",
"L#	c #8D9384",
"M#	c #8A9379",
"N#	c #353C21",
"O#	c #363820",
"P#	c #3A3728",
"Q#	c #434233",
"R#	c #515034",
"S#	c #4C5734",
"T#	c #3C4929",
"U#	c #353B26",
"V#	c #3B3A24",
"W#	c #575032",
"X#	c #555C35",
"Y#	c #495531",
"Z#	c #4F6034",
"`#	c #2F391F",
" $	c #2D3A20",
".$	c #353E30",
"+$	c #1C2417",
"@$	c #1D1D14",
"#$	c #2D311D",
"$$	c #333E2F",
"%$	c #585842",
"&$	c #34372B",
"*$	c #889191",
"=$	c #919E91",
"-$	c #4D5C34",
";$	c #565C4A",
">$	c #647171",
",$	c #595F52",
"'$	c #6E6E5F",
")$	c #403E34",
"!$	c #363125",
"~$	c #594C38",
"{$	c #655938",
"]$	c #3E4527",
"^$	c #343825",
"/$	c #404D2B",
"($	c #2D3521",
"_$	c #1A1B12",
":$	c #7D8988",
"<$	c #333936",
"[$	c #2B2D29",
"}$	c #262C1B",
"|$	c #3D3E34",
"1$	c #4F5A4C",
"2$	c #94A0A3",
"3$	c #A3B0B1",
"4$	c #454840",
"5$	c #3F3D2E",
"6$	c #6D6F64",
"7$	c #666150",
"8$	c #554F33",
"9$	c #666242",
"0$	c #5D553C",
"a$	c #4C503C",
"b$	c #545B41",
"c$	c #3B3D32",
"d$	c #8B928E",
"e$	c #25261B",
"f$	c #6D7877",
"g$	c #4F5D63",
"h$	c #343731",
"i$	c #555D58",
"j$	c #566259",
"k$	c #4E4B3E",
"l$	c #3F4232",
"m$	c #616A68",
"n$	c #252620",
"o$	c #383D30",
"p$	c #6A7366",
"q$	c #707569",
"r$	c #4F5443",
"s$	c #485038",
"t$	c #505641",
"u$	c #6F7861",
"v$	c #95A094",
"w$	c #8B958F",
"x$	c #676F67",
"y$	c #7E8582",
"z$	c #474B4A",
"A$	c #414137",
"B$	c #5F6B6A",
"C$	c #52626A",
"D$	c #393E3A",
"E$	c #5A6363",
"F$	c #484C44",
"G$	c #424A3E",
"H$	c #535C53",
"I$	c #474738",
"J$	c #5C5945",
"K$	c #7F8173",
"L$	c #939A95",
"M$	c #929C9C",
"N$	c #9EABAD",
"O$	c #A5B4B7",
"P$	c #89959A",
"Q$	c #3E443E",
"R$	c #3C463B",
"S$	c #485450",
"T$	c #53626A",
"U$	c #5C6B6C",
"V$	c #515F5E",
"W$	c #65767B",
"X$	c #899DA4",
"Y$	c #88999F",
"Z$	c #8E9A9B",
"`$	c #828B88",
" %	c #696F66",
".%	c #7F8A8A",
"+%	c #7E8788",
"@%	c #849196",
"#%	c #899AA0",
"$%	c #646F75",
"%%	c #3C413F",
"&%	c #252925",
"*%	c #647074",
"=%	c #36464E",
"-%	c #505F67",
";%	c #606F76",
">%	c #55646E",
",%	c #687B85",
"'%	c #748890",
")%	c #75878D",
"!%	c #6F7F82",
"~%	c #75858A",
"{%	c #798D95",
"]%	c #6C7E85",
"^%	c #5E6F77",
"/%	c #4D5A62",
"(%	c #48555E",
"_%	c #4B5C65",
":%	c #50606A",
"<%	c #5B6E7A",
"[%	c #5D707B",
"}%	c #5D6F79",
"|%	c #5C6D77",
"1%	c #5D6D78",
"2%	c #5B6974",
"3%	c #4F5C68",
"4%	c #51606C",
"5%	c #515E6A",
"                                                                ",
"                                                                ",
"                        .                                       ",
"                    + @ # $ % & * = - ; > ,                     ",
"                ' ) ! ~ { ] ^ / ( _ : < [ } |                   ",
"                1 2 3 4 5 6 7 8 9 0 a b c d e f g               ",
"              h i j k l m n o p q r s t u v w x y z             ",
"            A B C D E F o G H I J K L M N O P Q R S             ",
"        T U V W X Y Z `  ...+.@.#.$.%.&.*.=.-.;.>.,.'.          ",
"        ).!.~.{.].^./.(._.:.<.[.}.|.1.2.3.4.5.6.7.8.9.0.        ",
"      a.b.c.d.e.f.g.h.i.j.k.l.m.n.o.p.q.r.s.t.u.v.w.x.y.z.      ",
"      A.B.C.D.E.F.G.H.I.J.K.L.M.N.O.P.Q.R.S.T.U.V.W.X.Y.Z.      ",
"      e.`. +.+++@+#+$+%+&+*+=+-+;+>+,+'+)+!+~+{+]+^+/+(+_+      ",
"    :+<+[+}+|+1+2+3+4+5+6+7+8+9+0+a+b+c+d+e+f+g+h+i+j+k+l+      ",
"      m+n+o+p+q+r+s+t+u+v+w+x+y+z+A+B+C+D+E+F+G+H+I+J+K+L+      ",
"      M+N+O+P+Q+R+S+T+U+V+W+X+Y+Z+`+ @.@+@@@#@$@%@&@*@=@-@      ",
"      ;@>@,@'@)@!@~@{@]@^@/@(@_@:@<@[@}@|@1@2@3@4@5@6@7@8@9@    ",
"      0@a@b@c@d@e@f@g@h@i@j@k@l@m@n@o@p@q@r@s@t@u@v@w@x@y@      ",
"      z@A@B@C@D@E@F@G@H@I@J@K@L@M@N@O@P@Q@R@S@T@U@V@W@X@Y@      ",
"      Z@`@ #.#+#@###$#%#&#*#=#-#;#>#,#'#y.)#!#~#{#]#^#/#(#      ",
"      _#:#<#[#}#|#1#2#3#4#5#6#7#8#9#0#a#b#c#d#e#f#g#h#i#j#      ",
"        k#l#m#n#o#p#q#r#s#t#u#v#w#x#y#z#A#B#C#D#E#F#G#H#I#      ",
"        J#K#L#M#N#O#P#Q#R#S#T#U#V#W#X#Y#Z#`# $.$+$@$#$$$        ",
"          %$&$*$=$-$;$>$,$'$)$!$~${$]$^$/$($_$:$<$[$}$          ",
"            |$1$2$3$4$5$6$7$8$9$0$a$b$c$d$! e$f$g$h$i$          ",
"          j$k$l$m$n$o$p$q$r$s$t$u$v$w$x$y$z$A$B$C$              ",
"                D$E$F$G$H$I$J$K$L$M$N$O$P$Q$R$S$T$              ",
"                U$V$W$X$Y$Z$`$ %.%+%@%#%$%%%&%*%                ",
"                =%-%;%>%,%'%)%!%~%{%]%^%/%                      ",
"                    (%_%:%<%[%}%|%1%2%                          ",
"                            3%4%  5%                            ",
"                                                                "};
