/* XPM */
static char * ryzom_32x32_xpm[] = {
"32 32 661 2",
"  	c None",
". 	c #A8B58C",
"+ 	c #B7C0AA",
"@ 	c #CACCCA",
"# 	c #AEADA8",
"$ 	c #949FA4",
"% 	c #A5ADB2",
"& 	c #D7E4E8",
"* 	c #D8E8ED",
"= 	c #A8ABA6",
"- 	c #978E81",
"; 	c #9D9C8E",
"> 	c #BEC4BE",
", 	c #777D61",
"' 	c #737766",
") 	c #747674",
"! 	c #717175",
"~ 	c #6E6E71",
"{ 	c #8A9293",
"] 	c #888477",
"^ 	c #63605B",
"/ 	c #83856E",
"( 	c #888C7E",
"_ 	c #666D60",
": 	c #4A483C",
"< 	c #433729",
"[ 	c #B1B1AC",
"} 	c #ABABA9",
"| 	c #C1B195",
"1 	c #8A816C",
"2 	c #48453A",
"3 	c #3D3A32",
"4 	c #6B6A61",
"5 	c #8A8B8A",
"6 	c #989592",
"7 	c #948F87",
"8 	c #7E7861",
"9 	c #59513F",
"0 	c #65604F",
"a 	c #918F86",
"b 	c #5F5E45",
"c 	c #4B5735",
"d 	c #3F462F",
"e 	c #443F31",
"f 	c #5B5E48",
"g 	c #98998C",
"h 	c #8C7B59",
"i 	c #B1AA95",
"j 	c #49483C",
"k 	c #7F7B6F",
"l 	c #6E6049",
"m 	c #696C6D",
"n 	c #483C2F",
"o 	c #403623",
"p 	c #5B4C3B",
"q 	c #514237",
"r 	c #66553A",
"s 	c #645B3E",
"t 	c #878B79",
"u 	c #93948B",
"v 	c #605C3B",
"w 	c #4D5032",
"x 	c #373117",
"y 	c #48512C",
"z 	c #52633A",
"A 	c #7D8278",
"B 	c #BAB3A5",
"C 	c #7C7E6B",
"D 	c #2B2818",
"E 	c #664E32",
"F 	c #37341B",
"G 	c #636156",
"H 	c #737769",
"I 	c #454935",
"J 	c #3F4430",
"K 	c #666637",
"L 	c #5E712F",
"M 	c #535435",
"N 	c #7D7E6A",
"O 	c #717267",
"P 	c #6E6B6A",
"Q 	c #545B46",
"R 	c #6D715E",
"S 	c #767960",
"T 	c #575736",
"U 	c #42512E",
"V 	c #303828",
"W 	c #8D9696",
"X 	c #9C9577",
"Y 	c #58513D",
"Z 	c #3E3C22",
"` 	c #4D4B1E",
" .	c #323916",
"..	c #565137",
"+.	c #4A3D26",
"@.	c #3E3E24",
"#.	c #746E37",
"$.	c #5F5B2F",
"%.	c #232A10",
"&.	c #1F2513",
"*.	c #5B5B3C",
"=.	c #807B63",
"-.	c #625C4B",
";.	c #6B675B",
">.	c #90968D",
",.	c #7B7E7B",
"'.	c #7C8380",
").	c #4B503E",
"!.	c #1D2212",
"~.	c #3F4233",
"{.	c #737A76",
"].	c #4D4F31",
"^.	c #494524",
"/.	c #7D9442",
"(.	c #4F6429",
"_.	c #57512D",
":.	c #4F3C1F",
"<.	c #423F1D",
"[.	c #5F6A35",
"}.	c #3D481F",
"|.	c #404024",
"1.	c #5F512B",
"2.	c #3F381E",
"3.	c #6E6C3F",
"4.	c #717448",
"5.	c #646C48",
"6.	c #B4ADA3",
"7.	c #E5E6E4",
"8.	c #BEBEBE",
"9.	c #444737",
"0.	c #2D311B",
"a.	c #222911",
"b.	c #1D220E",
"c.	c #231E09",
"d.	c #59574D",
"e.	c #879657",
"f.	c #3C3922",
"g.	c #4C5324",
"h.	c #4E4D27",
"i.	c #3F3420",
"j.	c #3C401F",
"k.	c #4E552A",
"l.	c #5C703B",
"m.	c #778649",
"n.	c #43442C",
"o.	c #736039",
"p.	c #897648",
"q.	c #847644",
"r.	c #635F2D",
"s.	c #525B31",
"t.	c #647444",
"u.	c #504E43",
"v.	c #7F7774",
"w.	c #8B8788",
"x.	c #969591",
"y.	c #4B542F",
"z.	c #5C6041",
"A.	c #5D513D",
"B.	c #474638",
"C.	c #4B442E",
"D.	c #8E8B82",
"E.	c #859F4A",
"F.	c #373F1C",
"G.	c #24260C",
"H.	c #161407",
"I.	c #2C2D14",
"J.	c #3C4420",
"K.	c #38401D",
"L.	c #657B43",
"M.	c #70804E",
"N.	c #595C35",
"O.	c #706B3A",
"P.	c #66562B",
"Q.	c #3C4120",
"R.	c #383B20",
"S.	c #444B2E",
"T.	c #75766C",
"U.	c #DEDBD8",
"V.	c #A49E98",
"W.	c #7A726F",
"X.	c #ADAFAA",
"Y.	c #9CA098",
"Z.	c #767164",
"`.	c #402815",
" +	c #46362F",
".+	c #47341D",
"++	c #484A2B",
"@+	c #858F81",
"#+	c #828566",
"$+	c #576B2A",
"%+	c #252210",
"&+	c #3F3B17",
"*+	c #4A2B12",
"=+	c #442812",
"-+	c #58582B",
";+	c #555F32",
">+	c #5C6433",
",+	c #48532E",
"'+	c #636D42",
")+	c #574E30",
"!+	c #524C2B",
"~+	c #69623A",
"{+	c #888661",
"]+	c #CECDBF",
"^+	c #E3DFDC",
"/+	c #C9C3C3",
"(+	c #898481",
"_+	c #5D574D",
":+	c #797271",
"<+	c #8D8987",
"[+	c #484638",
"}+	c #534830",
"|+	c #4A4C48",
"1+	c #5E4327",
"2+	c #252108",
"3+	c #636C59",
"4+	c #666B44",
"5+	c #424030",
"6+	c #675F3D",
"7+	c #32100A",
"8+	c #2F180F",
"9+	c #887F5A",
"0+	c #817950",
"a+	c #615F39",
"b+	c #2C2D18",
"c+	c #2A2113",
"d+	c #695534",
"e+	c #947E52",
"f+	c #B8A37E",
"g+	c #C3B29E",
"h+	c #ACA09D",
"i+	c #A09795",
"j+	c #BCBABA",
"k+	c #857F7C",
"l+	c #544D3D",
"m+	c #30362B",
"n+	c #59564A",
"o+	c #A2A8A6",
"p+	c #62645A",
"q+	c #535453",
"r+	c #474534",
"s+	c #3D3C1F",
"t+	c #8F9692",
"u+	c #575033",
"v+	c #776D51",
"w+	c #ACB2AA",
"x+	c #8A9080",
"y+	c #5A432F",
"z+	c #8B7B65",
"A+	c #746D50",
"B+	c #5F502C",
"C+	c #484224",
"D+	c #414122",
"E+	c #75673B",
"F+	c #9E8149",
"G+	c #BDB7A9",
"H+	c #E5E4E1",
"I+	c #EAE7E2",
"J+	c #9C9491",
"K+	c #ADABA6",
"L+	c #A0A3A0",
"M+	c #A8AFAE",
"N+	c #5C5F51",
"O+	c #5E5D32",
"P+	c #525431",
"Q+	c #43382B",
"R+	c #453E34",
"S+	c #41412F",
"T+	c #5D6454",
"U+	c #464941",
"V+	c #6D7372",
"W+	c #76705A",
"X+	c #60624D",
"Y+	c #494644",
"Z+	c #39382E",
"`+	c #444630",
" @	c #584F2D",
".@	c #444823",
"+@	c #30381B",
"@@	c #49562C",
"#@	c #7E8D54",
"$@	c #939472",
"%@	c #7F7F60",
"&@	c #7C8259",
"*@	c #373727",
"=@	c #3F3834",
"-@	c #85817E",
";@	c #6D6D66",
">@	c #666765",
",@	c #352E27",
"'@	c #49493C",
")@	c #969985",
"!@	c #A39D98",
"~@	c #928E81",
"{@	c #8C9892",
"]@	c #7E8B8A",
"^@	c #444130",
"/@	c #343021",
"(@	c #444736",
"_@	c #737F5D",
":@	c #605543",
"<@	c #2D2D19",
"[@	c #28301C",
"}@	c #5E6257",
"|@	c #596044",
"1@	c #3F4523",
"2@	c #384123",
"3@	c #65724F",
"4@	c #889176",
"5@	c #E6E6DF",
"6@	c #C2C0BD",
"7@	c #827B6D",
"8@	c #656551",
"9@	c #3C3B28",
"0@	c #524F43",
"a@	c #6A644D",
"b@	c #655A42",
"c@	c #7C735E",
"d@	c #9F9F8D",
"e@	c #B2B5B0",
"f@	c #C9D0CD",
"g@	c #8F9490",
"h@	c #3F4037",
"i@	c #4F504A",
"j@	c #292420",
"k@	c #2F2F19",
"l@	c #2C2710",
"m@	c #464730",
"n@	c #8C9194",
"o@	c #5D4C2A",
"p@	c #252514",
"q@	c #3F412A",
"r@	c #5B6D68",
"s@	c #4D4C3D",
"t@	c #282F1A",
"u@	c #526038",
"v@	c #49512D",
"w@	c #444B2D",
"x@	c #7F7B76",
"y@	c #5B5453",
"z@	c #535137",
"A@	c #525535",
"B@	c #565136",
"C@	c #48432A",
"D@	c #483F23",
"E@	c #635636",
"F@	c #777664",
"G@	c #D5DBDA",
"H@	c #BECFD0",
"I@	c #A8BCC1",
"J@	c #525553",
"K@	c #4E4432",
"L@	c #4B402D",
"M@	c #403F26",
"N@	c #3B4A23",
"O@	c #323517",
"P@	c #454936",
"Q@	c #828859",
"R@	c #30330E",
"S@	c #424513",
"T@	c #444F29",
"U@	c #434629",
"V@	c #746D5B",
"W@	c #585532",
"X@	c #4F552C",
"Y@	c #677E43",
"Z@	c #5A6E3D",
"`@	c #30361E",
" #	c #424521",
".#	c #5F5831",
"+#	c #3C3D1D",
"@#	c #414024",
"##	c #3D391A",
"$#	c #413719",
"%#	c #5E593E",
"&#	c #929D9E",
"*#	c #77868D",
"=#	c #454C50",
"-#	c #2F2F2B",
";#	c #4A3D1A",
">#	c #3C451C",
",#	c #313B19",
"'#	c #30401D",
")#	c #23270F",
"!#	c #30301E",
"~#	c #6E7E49",
"{#	c #363617",
"]#	c #261605",
"^#	c #43360D",
"/#	c #5C5D29",
"(#	c #8F8D6B",
"_#	c #7F7563",
":#	c #65512D",
"<#	c #433E23",
"[#	c #546137",
"}#	c #485332",
"|#	c #454D45",
"1#	c #60644A",
"2#	c #666C36",
"3#	c #57462C",
"4#	c #634E2A",
"5#	c #5D4A25",
"6#	c #4A3819",
"7#	c #312513",
"8#	c #2B1F15",
"9#	c #1F2119",
"0#	c #16170F",
"a#	c #37391C",
"b#	c #373216",
"c#	c #313718",
"d#	c #1F2B11",
"e#	c #111208",
"f#	c #3C422F",
"g#	c #6C7B4A",
"h#	c #566631",
"i#	c #493915",
"j#	c #4A4314",
"k#	c #47501C",
"l#	c #4A5A23",
"m#	c #7B806A",
"n#	c #757260",
"o#	c #3B3E23",
"p#	c #3C4124",
"q#	c #252314",
"r#	c #3A413E",
"s#	c #405B52",
"t#	c #3E4331",
"u#	c #4C462A",
"v#	c #5E4C29",
"w#	c #654E26",
"x#	c #634C2A",
"y#	c #583E1E",
"z#	c #2C1D0E",
"A#	c #3E2C17",
"B#	c #42230F",
"C#	c #443216",
"D#	c #423817",
"E#	c #1C200E",
"F#	c #161605",
"G#	c #808473",
"H#	c #535B35",
"I#	c #394328",
"J#	c #232212",
"K#	c #423E17",
"L#	c #26370C",
"M#	c #30371A",
"N#	c #5A6B38",
"O#	c #6E7364",
"P#	c #5C6251",
"Q#	c #3D3E2D",
"R#	c #4A473C",
"S#	c #71664C",
"T#	c #775E33",
"U#	c #463921",
"V#	c #574326",
"W#	c #514528",
"X#	c #524C2D",
"Y#	c #606139",
"Z#	c #4C502A",
"`#	c #4B4923",
" $	c #3F351E",
".$	c #4F3F1E",
"+$	c #53532B",
"@$	c #202A13",
"#$	c #2A2C16",
"$$	c #2B2813",
"%$	c #343525",
"&$	c #655642",
"*$	c #32311A",
"=$	c #3B3B1C",
"-$	c #3F3214",
";$	c #3F3B19",
">$	c #333D1B",
",$	c #2B3215",
"'$	c #272B27",
")$	c #636E75",
"!$	c #766856",
"~$	c #6D6B3A",
"{$	c #5D6D38",
"]$	c #565E35",
"^$	c #56663A",
"/$	c #504F2F",
"($	c #495331",
"_$	c #404528",
":$	c #50542E",
"<$	c #607239",
"[$	c #4B5D2F",
"}$	c #364A22",
"|$	c #26301C",
"1$	c #171C12",
"2$	c #222417",
"3$	c #353D24",
"4$	c #666C6B",
"5$	c #3A3216",
"6$	c #4B4B2D",
"7$	c #8D9384",
"8$	c #8A9379",
"9$	c #353C21",
"0$	c #363820",
"a$	c #3A3728",
"b$	c #434233",
"c$	c #515034",
"d$	c #4C5734",
"e$	c #3C4929",
"f$	c #353B26",
"g$	c #3B3A24",
"h$	c #575032",
"i$	c #555C35",
"j$	c #495531",
"k$	c #4F6034",
"l$	c #2F391F",
"m$	c #2D3A20",
"n$	c #353E30",
"o$	c #1C2417",
"p$	c #1D1D14",
"q$	c #2D311D",
"r$	c #333E2F",
"s$	c #7E8388",
"t$	c #63624A",
"u$	c #585842",
"v$	c #34372B",
"w$	c #889191",
"x$	c #919E91",
"y$	c #4D5C34",
"z$	c #565C4A",
"A$	c #647171",
"B$	c #595F52",
"C$	c #6E6E5F",
"D$	c #403E34",
"E$	c #363125",
"F$	c #594C38",
"G$	c #655938",
"H$	c #3E4527",
"I$	c #343825",
"J$	c #404D2B",
"K$	c #2D3521",
"L$	c #1A1B12",
"M$	c #7D8988",
"N$	c #333936",
"O$	c #2B2D29",
"P$	c #262C1B",
"Q$	c #646660",
"R$	c #738167",
"S$	c #4B5138",
"T$	c #3D3E34",
"U$	c #4F5A4C",
"V$	c #94A0A3",
"W$	c #A3B0B1",
"X$	c #454840",
"Y$	c #3F3D2E",
"Z$	c #6D6F64",
"`$	c #666150",
" %	c #554F33",
".%	c #666242",
"+%	c #5D553C",
"@%	c #4C503C",
"#%	c #545B41",
"$%	c #3B3D32",
"%%	c #8B928E",
"&%	c #25261B",
"*%	c #6D7877",
"=%	c #4F5D63",
"-%	c #343731",
";%	c #555D58",
">%	c #909CA3",
",%	c #566259",
"'%	c #4E4B3E",
")%	c #3F4232",
"!%	c #616A68",
"~%	c #252620",
"{%	c #383D30",
"]%	c #6A7366",
"^%	c #707569",
"/%	c #4F5443",
"(%	c #485038",
"_%	c #505641",
":%	c #6F7861",
"<%	c #95A094",
"[%	c #8B958F",
"}%	c #676F67",
"|%	c #7E8582",
"1%	c #474B4A",
"2%	c #414137",
"3%	c #5F6B6A",
"4%	c #52626A",
"5%	c #454B49",
"6%	c #7B858C",
"7%	c #868D91",
"8%	c #5A615E",
"9%	c #393E3A",
"0%	c #5A6363",
"a%	c #484C44",
"b%	c #424A3E",
"c%	c #535C53",
"d%	c #474738",
"e%	c #5C5945",
"f%	c #7F8173",
"g%	c #939A95",
"h%	c #929C9C",
"i%	c #9EABAD",
"j%	c #A5B4B7",
"k%	c #89959A",
"l%	c #3E443E",
"m%	c #3C463B",
"n%	c #485450",
"o%	c #53626A",
"p%	c #899197",
"q%	c #5C6B6C",
"r%	c #515F5E",
"s%	c #65767B",
"t%	c #899DA4",
"u%	c #88999F",
"v%	c #8E9A9B",
"w%	c #828B88",
"x%	c #696F66",
"y%	c #7F8A8A",
"z%	c #7E8788",
"A%	c #849196",
"B%	c #899AA0",
"C%	c #646F75",
"D%	c #3C413F",
"E%	c #252925",
"F%	c #647074",
"G%	c #7B828B",
"H%	c #36464E",
"I%	c #505F67",
"J%	c #606F76",
"K%	c #55646E",
"L%	c #687B85",
"M%	c #748890",
"N%	c #75878D",
"O%	c #6F7F82",
"P%	c #75858A",
"Q%	c #798D95",
"R%	c #6C7E85",
"S%	c #5E6F77",
"T%	c #4D5A62",
"U%	c #626B72",
"V%	c #A2A6A6",
"W%	c #8E949C",
"X%	c #666F78",
"Y%	c #48555E",
"Z%	c #4B5C65",
"`%	c #50606A",
" &	c #5B6E7A",
".&	c #5D707B",
"+&	c #5D6F79",
"@&	c #5C6D77",
"#&	c #5D6D78",
"$&	c #5B6974",
"%&	c #626D75",
"&&	c #6D777E",
"*&	c #838A92",
"=&	c #878E95",
"-&	c #686F78",
";&	c #54606A",
">&	c #4F5C68",
",&	c #51606C",
"'&	c #515E6A",
")&	c #59636E",
"!&	c #6E757E",
"                                                                ",
"                                                                ",
"                    . + @ # $ % & * = - ; >                     ",
"                  , ' ) ! ~ { ] ^ / ( _ : < [ }                 ",
"              | 1 2 3 4 5 6 7 8 9 0 a b c d e f g               ",
"            h i j k l m n o p q r s t u v w x y z A             ",
"          B C D E F G H I J K L M N O P Q R S T U V W           ",
"        X Y Z `  ...+.@.K #.$.%.&.*.=.-.;.>.,.'.).!.~.{.        ",
"        ].^./.(._.:.<.[.}.|.1.2.3.4.5.6.7.8.9.0.a.b.c.d.        ",
"      e.f.g.h.i.j.k.l.m.n.o.p.q.r.s.t.u.v.w.x.y.z.A.B.C.D.      ",
"      E.F.G.H.I.J.K.L.M.N.O.P.Q.R.S.T.U.V.W.X.Y.Z.`. +.+++@+    ",
"    #+$+%+&+*+=+-+;+>+,+'+)+!+~+{+]+^+/+(+_+:+<+[+}+|+1+2+3+    ",
"    4+I.5+6+7+8+9+0+a+b+c+d+e+f+g+h+i+j+k+l+m+n+o+p+q+r+s+t+    ",
"    u+v+w+x+y+z+A+B+C+D+E+F+G+H+I+J+K+L+M+N+O+P+Q+R+S+T+U+V+    ",
"    W+X+Y+Z+`+ @.@+@@@#@$@%@&@*@=@-@;@>@,@'@)@!@~@{@]@^@/@(@    ",
"  _@:@<@[@}@|@1@2@3@4@5@6@7@8@9@0@a@b@c@d@e@f@g@h@i@j@k@l@m@n@  ",
"    o@p@q@r@s@t@u@v@w@x@y@z@A@B@C@D@E@F@G@H@I@J@K@L@M@N@O@P@    ",
"    Q@R@S@T@U@V@W@X@Y@Z@`@ #.#+#@###$#%#&#*#=#-#;#>#,#'#)#!#    ",
"    ~#{#]#^#/#(#_#:#<#[#}#|#1#2#3#4#5#6#7#8#9#0#a#b#c#d#e#  f#  ",
"    g#h#i#j#k#l#m#n#o#p#q#r#s#t#u#v#w#x#.+y#z#A#B#C#D#E#F#G#    ",
"    H#I#J#K#L#M#N#O#P#Q#R#S#T#U#V#W#X#Y#Z#`# $.$+$@$#$$$%$      ",
"      &$*$=$-$;$>$,$'$)$!$~${$]$^$/$($_$:$<$[$}$|$1$2$3$4$      ",
"        5$6$7$8$9$0$a$b$c$d$e$f$g$h$i$j$k$l$m$n$o$p$q$r$s$      ",
"        t$u$v$w$x$y$z$A$B$C$D$E$F$G$H$I$J$K$L$M$N$O$P$Q$        ",
"        R$S$T$U$V$W$X$Y$Z$`$ %.%+%@%#%$%%%3 &%*%=%-%;%          ",
"        >%,%'%)%!%~%{%]%^%/%(%_%:%<%[%}%|%1%2%3%4%5%            ",
"          6%7%8%9%0%a%b%c%d%e%f%g%h%i%j%k%l%m%n%o%              ",
"              p%q%r%s%t%u%v%w%x%y%z%A%B%C%D%E%F%G%              ",
"                H%I%J%K%L%M%N%O%P%Q%R%S%T%U%V%W%                ",
"                  X%Y%Z%`% &.&+&@&#&$&%&&&*&=&                  ",
"                        -&;&>&,&$&'&)&!&                        ",
"                                                                "};
