/* XPM */
static char *ryzom[] = {
/* columns rows colors chars-per-pixel */
"32 32 227 2 ",
"   c #281C09",
".  c #1D250B",
"X  c #2A360B",
"o  c #39360D",
"O  c #2A2C17",
"+  c #332A10",
"@  c #2D3411",
"#  c #333312",
"$  c #373817",
"%  c #30290F",
"&  c #2C3523",
"*  c #3B3E2B",
"=  c #343826",
"-  c #3B2F3F",
";  c #383A38",
":  c #252B2B",
">  c #483818",
",  c #523A19",
"<  c #402D0E",
"1  c #443A21",
"2  c #483F31",
"3  c #3C4C15",
"4  c #384717",
"5  c #3C5415",
"6  c #3B5315",
"7  c #3B4426",
"8  c #3D5029",
"9  c #384435",
"0  c #344934",
"q  c #47491A",
"w  c #52461C",
"e  c #42541B",
"r  c #455719",
"t  c #51581D",
"y  c #67421B",
"u  c #63531F",
"i  c #4C6519",
"p  c #58661E",
"a  c #5B761F",
"s  c #4C781A",
"d  c #6E6E1E",
"f  c #4B4224",
"g  c #444A23",
"h  c #464728",
"j  c #594222",
"k  c #564C23",
"l  c #564A28",
"z  c #495A28",
"x  c #535423",
"c  c #585728",
"v  c #464333",
"b  c #494934",
"n  c #454738",
"m  c #564C31",
"M  c #4C513D",
"N  c #555334",
"B  c #55533B",
"V  c #585935",
"C  c #6A4D26",
"Z  c #714F22",
"A  c #695629",
"S  c #785724",
"D  c #63563B",
"F  c #695838",
"G  c #4C6327",
"H  c #566727",
"J  c #557521",
"K  c #5A7D24",
"L  c #587728",
"P  c #526334",
"I  c #56613A",
"U  c #5A7633",
"Y  c #4B6E33",
"T  c #626826",
"R  c #756A27",
"E  c #667E28",
"W  c #72772A",
"Q  c #6C643C",
"!  c #75663A",
"~  c #64753A",
"^  c #7E7535",
"/  c #2E3B4A",
"(  c #353445",
")  c #353649",
"_  c #373849",
"`  c #3C4B4C",
"'  c #384949",
"]  c #2D4459",
"[  c #334B5B",
"{  c #394455",
"}  c #3E5455",
"|  c #2E4B64",
" . c #374E64",
".. c #3C5464",
"X. c #335269",
"o. c #385567",
"O. c #3F677A",
"+. c #454E45",
"@. c #495746",
"#. c #535443",
"$. c #5C5A4B",
"%. c #575848",
"&. c #45545A",
"*. c #495D5B",
"=. c #465656",
"-. c #515C54",
";. c #675C48",
":. c #625D53",
">. c #536349",
",. c #576D4A",
"<. c #576959",
"1. c #4E6244",
"2. c #6C634B",
"3. c #656649",
"4. c #766E4E",
"5. c #69774A",
"6. c #6B6452",
"7. c #6B6A56",
"8. c #66695B",
"9. c #736D56",
"0. c #687A56",
"q. c #7C795C",
"w. c #7C754E",
"e. c #445C63",
"r. c #455B68",
"t. c #4E6766",
"y. c #556867",
"u. c #597764",
"i. c #436274",
"p. c #4C6672",
"a. c #4D6B7A",
"s. c #5B7271",
"d. c #4A7661",
"f. c #666C66",
"g. c #67756B",
"h. c #7B7A62",
"j. c #787868",
"k. c #6B7877",
"l. c #7A7E77",
"z. c #805D3A",
"x. c #84652C",
"c. c #876A38",
"v. c #837536",
"b. c #957530",
"n. c #A47E33",
"m. c #80684D",
"M. c #827255",
"N. c #847051",
"B. c #A0764C",
"V. c #837B64",
"C. c #877865",
"Z. c #817675",
"A. c #5A8622",
"S. c #648627",
"D. c #668833",
"F. c #65834A",
"G. c #708046",
"H. c #7C885D",
"J. c #6F8E4F",
"K. c #7E916F",
"L. c #768679",
"P. c #738571",
"I. c #87882C",
"U. c #979237",
"Y. c #A68B3C",
"T. c #A79035",
"R. c #928E52",
"E. c #89A556",
"W. c #878469",
"Q. c #928A6D",
"!. c #898677",
"~. c #958674",
"^. c #94987D",
"/. c #8E9A70",
"(. c #AA926F",
"). c #94A57F",
"_. c #AEA278",
"`. c #CCB055",
"'. c #C9A453",
"]. c #D4B874",
"[. c #C6A166",
"{. c #4B6D83",
"}. c #4A7787",
"|. c #587789",
" X c #627A84",
".X c #617780",
"XX c #518395",
"oX c #688089",
"OX c #758887",
"+X c #688798",
"@X c #7B8F95",
"#X c #7A959E",
"$X c #6E8EA0",
"%X c #6E90A3",
"&X c #868887",
"*X c #889487",
"=X c #969589",
"-X c #8A9695",
";X c #9C9C94",
":X c #958F84",
">X c #A49887",
",X c #A69F90",
"<X c #9FAF82",
"1X c #9BA795",
"2X c #8DA189",
"3X c #AEA597",
"4X c #ACA98C",
"5X c #839DAB",
"6X c #94A4A7",
"7X c #81A1B1",
"8X c #97ACB4",
"9X c #BBB2A9",
"0X c #A7B5B9",
"qX c #BDB7B0",
"wX c #ADAEA6",
"eX c #C4B9AE",
"rX c #B9C0BB",
"tX c #C6C5B8",
"yX c #D2C3A6",
"uX c #E1D6BF",
"iX c #B7C0C4",
"pX c #C6C9C7",
"aX c #D2CAC5",
"sX c #D8CDC3",
"dX c #D5D4D4",
"fX c #D6DEE0",
"gX c None",
/* pixels */
"gXgXgXgXgXgXgXgXgXgXgXgXgXgXgXgXgXgXgXgXgXgXgXgXgXgXgXgXgXgXgXgX",
"gXgXgXgXgXgXgXgXgXgXgXgXgXgXgXgXgXgXgXgXgXgXgXgXgXgXgXgXgXgXgXgX",
"gXgXgXgXgXgXgXgXgXE.E.tXpX;XOX0XpXqX=XV.q.*XgXgXgXgXgXgXgXgXgXgX",
"gXgXgXgXgXgXgXgX4XG.8.j.!.&X3X:Xj.).=X;.2 $.>X XgXgXgXgXgXgXgXgX",
"gXgXgXgXgXgXgX_.h.#.:.Z.=X!.^.4.Q H.;X3.z g b H ,.gXgXgXgXgXgXgX",
"gXgXgXgXgXE.Q.W.9.h.M.8.v f F V D !.=X5.5.I h r L 0.OXgXgXgXgXgX",
"gXgXgXgX<Xh.v f A m 3.B l c a K H.W.6.W.).).h.V G U g.u.gXgXgXgX",
"gXgXgXgXw.f q t g N m c W u i q 2.>X3XV.m 7 * v 7 5 8 >.gXgXgXgX",
"gXgXgXgXt t E r k j y W i w , F yXpXwX,X>X!.q.B z b O ; -.gXgXgX",
"gXgXgXA.X 3 4 o , S d S.T S x.(.qX;X:Xj.C.M.~.H.F.J.2 1 #.gXgXgX",
"gXgXgXS.3 % + , y x.S.a H x.c.(.>XC.;.M.N.N.(.!.f.g.n 1 g >.gXgX",
"gXgXE A.4 w z.B.n.I.i a p u x.(.eX>X3XtX4XF =XeX!.g.; v @ Y gXgX",
"gXgXp 5 $ 5.! ! b.R c J t Z n.[.sXeXsXeX9X;.Z.dXwX-Xg.%.` <.&.gX",
"gXgXx f V ~ ! x c A ^ ^ v.Y.T.U.4XdXaXeXwX7.,XdX8X8.oXy.=.*.` gX",
"gX5.k 6.;Xj.4.F w R `.`.Y.Y.I.a m Z.eXaX>X6.V.iX5X@.M = & 9 ' gX",
"gXU N $.&X$.V = q R.].].'.'.W q ;.Z.eX:X;.v D 0X X= v t # $ ' gX",
"gXgXf O ; 9 h $ c c.R.tXuXyX(.N.C.C.6.F F w G.OX9 + 3 a 4 7 0 gX",
"gXgXw # 0 0 N 2.A R E U 9.N.m.;.;.l , Z l H K g > # 5 A.5 . 4 gX",
"gXgXJ o   # H /.q.A t J r v P H l C C Z , m e $ > % 5 s X q 6 gX",
"gXJ x 4 < o i K /.4.t 8 7 =.d.8 @.;.F F , C > > > > q 5 . 3 @ gX",
"gXgXx g % $ % e J.H.F.%.$.s.}.O.|.y.+.N b j j w z L 4 X O 8 gXgX",
"gXgXH f $ 1 > q K Y >.f.2.~ F.d.}.e.} +.c T H A.A.s @ z } gXgXgX",
"gXgXgXx f #.!.7.z 5 * 9 N V z 8 @.=.I P L S.D.J.A.7 4 ,.` gXgXgX",
"gXgXgXP g #.y.6XK.~ 7.<.f.6.+.` =.@.0 G ~ J z P.@.: 7 = : gXgXgX",
"gXgXgXgXP B @.k.8X*X>.7.l.9.B =.-.0.,.@.P.n = .Xa.0 ` ' gXgXgXgX",
"gXgXgXgXe.$.n =.s.@.@.0.h.#.B %.P.<X-XL.-X-.n t.a.] { ( gXgXgXgX",
"gXgXgXgXgXr.&.=.*.*.1.F.0.M :.!.-X6X8X8X#X<.@.e.i.{ gXgXgXgXgXgX",
"gXgXgXgXgXgX[ e.p.a.|.#X#X@XOXk.@X#X7X#Xk.' : r.o.{ gXgXgXgXgXgX",
"gXgXgXgXgXgXgX[ o.i.a.|.%X%X X X+X$X+X|.p.......{ gXgXgXgXgXgXgX",
"gXgXgXgXgXgXgXgX/ ] X.o.O.{.|.{.{.a.i...[ .. ._ gXgXgXgXgXgXgXgX",
"gXgXgXgXgXgXgXgXgXgX) / ] | X.X.X.| ] / / _ - gXgXgXgXgXgXgXgXgX",
"gXgXgXgXgXgXgXgXgXgXgXgX( ) ) ) _ _ ( ( gXgXgXgXgXgXgXgXgXgXgXgX"
};
